HIERARCHY
ROOT Hips
{
 OFFSET 0.000000 0.000000 0.000000
 CHANNELS 6 Xposition Yposition Zposition Yrotation Xrotation Zrotation
 JOINT Chest
 {
  OFFSET 0.000000 9.585900 0.002600
  CHANNELS 3 Yrotation Xrotation Zrotation
  JOINT Chest2
  {
   OFFSET 0.000000 9.601200 -0.005300
   CHANNELS 3 Yrotation Xrotation Zrotation
   JOINT Chest3
   {
    OFFSET 0.000000 9.561800 0.000000
    CHANNELS 3 Yrotation Xrotation Zrotation
    JOINT Chest4
    {
     OFFSET 0.000000 9.552100 0.000000
     CHANNELS 3 Yrotation Xrotation Zrotation
     JOINT Neck
     {
      OFFSET 0.000000 14.453000 0.000000
      CHANNELS 3 Yrotation Xrotation Zrotation
      JOINT Head
      {
       OFFSET 0.000000 8.936500 -0.011300
       CHANNELS 3 Yrotation Xrotation Zrotation
       End Site
       {
        OFFSET 0.000000 17.073600 -0.006000
       }
      }
     }
     JOINT RightCollar
     {
      OFFSET -2.921100 9.558500 0.000000
      CHANNELS 3 Yrotation Xrotation Zrotation
      JOINT RightShoulder
      {
       OFFSET -13.519700 0.000000 0.000000
       CHANNELS 3 Yrotation Xrotation Zrotation
       JOINT RightElbow
       {
        OFFSET 0.000000 -29.696600 0.000000
        CHANNELS 3 Yrotation Xrotation Zrotation
        JOINT RightWrist
        {
         OFFSET 0.000000 -24.004700 0.000000
         CHANNELS 3 Yrotation Xrotation Zrotation
         End Site
         {
          OFFSET 0.000000 -17.728500 0.000000
         }
        }
       }
      }
     }
     JOINT LeftCollar
     {
      OFFSET 2.921100 9.558500 0.000000
      CHANNELS 3 Yrotation Xrotation Zrotation
      JOINT LeftShoulder
      {
       OFFSET 13.519700 0.000000 0.000000
       CHANNELS 3 Yrotation Xrotation Zrotation
       JOINT LeftElbow
       {
        OFFSET 0.000000 -29.696600 0.000000
        CHANNELS 3 Yrotation Xrotation Zrotation
        JOINT LeftWrist
        {
         OFFSET 0.000000 -24.004700 0.000000
         CHANNELS 3 Yrotation Xrotation Zrotation
         End Site
         {
          OFFSET 0.000000 -17.728500 0.000000
         }
        }
       }
      }
     }
    }
   }
  }
 }
 JOINT RightHip
 {
  OFFSET -7.771700 -0.012900 -0.001300
  CHANNELS 3 Yrotation Xrotation Zrotation
  JOINT RightKnee
  {
   OFFSET 0.000000 -40.869800 0.001200
   CHANNELS 3 Yrotation Xrotation Zrotation
   JOINT RightAnkle
   {
    OFFSET 0.000000 -39.717900 0.002100
    CHANNELS 3 Yrotation Xrotation Zrotation
    JOINT RightToe
    {
     OFFSET 0.000000 -4.965400 11.033500
     CHANNELS 3 Yrotation Xrotation Zrotation
     End Site
     {
      OFFSET 0.000000 -1.423100 5.872300
     }
    }
   }
  }
 }
 JOINT LeftHip
 {
  OFFSET 7.771700 -0.012900 -0.001300
  CHANNELS 3 Yrotation Xrotation Zrotation
  JOINT LeftKnee
  {
   OFFSET 0.000000 -40.869800 0.001200
   CHANNELS 3 Yrotation Xrotation Zrotation
   JOINT LeftAnkle
   {
    OFFSET 0.000000 -39.717900 0.002100
    CHANNELS 3 Yrotation Xrotation Zrotation
    JOINT LeftToe
    {
     OFFSET 0.000000 -4.965400 11.033500
     CHANNELS 3 Yrotation Xrotation Zrotation
     End Site
     {
      OFFSET 0.000000 -1.423100 5.872300
     }
    }
   }
  }
 }
}
MOTION
Frames: 5
Frame Time: 0.008333
-10.820063 51.179936 22.135724 -175.879937 -30.874659 -9.016330 -0.838117 14.309761 4.021805 -0.625995 8.123481 2.289682 -0.706767 10.211999 2.877432 -0.614779 8.147366 2.300130 3.969803 20.269987 -0.824657 4.477155 -4.055366 -1.771412 3.069131 -1.674329 -3.312205 -7.639481 -12.512799 0.614276 69.994665 -53.513206 -48.182879 14.898091 4.864835 -20.939537 -9.733767 0.223919 -3.305596 -3.137833 -9.988650 -0.919675 -67.407342 -42.588444 71.628561 -3.162480 -8.914590 0.044247 -17.521695 -32.362941 5.129219 12.423036 85.125682 10.963828 2.257238 -17.763299 -2.172114 -0.002971 0.049304 -0.074614 -11.829277 -48.765947 9.460653 177.401507 78.337405 172.351001 -1.933531 -18.892979 3.992730 -0.038676 0.025118 0.015189
-10.822593 51.192713 22.115842 -175.850357 -30.829304 -8.993652 -0.823831 14.354072 4.043099 -0.629904 8.128688 2.286726 -0.711648 10.218594 2.873563 -0.618615 8.152660 2.297162 3.929840 20.188039 -0.849419 4.451326 -4.091011 -1.797970 3.055555 -1.681088 -3.332154 -7.780882 -12.455817 0.625773 70.093559 -53.626748 -48.248524 14.880872 4.803236 -21.053073 -9.748050 0.227566 -3.295568 -3.092142 -9.912154 -0.888971 -67.645192 -42.639571 71.891340 -3.134043 -8.904699 0.024614 -17.611485 -32.428087 5.174490 12.455464 85.206378 11.009508 2.264149 -17.822510 -2.235946 0.009689 0.044602 -0.075230 -11.818952 -48.784346 9.445215 177.378994 78.348043 172.304404 -1.967898 -18.905060 4.025696 -0.018782 0.016790 0.007454
-10.836867 51.197187 22.107446 -175.785055 -30.695490 -8.923684 -0.866173 14.310917 3.997312 -0.620873 8.157455 2.294170 -0.726132 10.200252 2.860984 -0.620792 8.157548 2.294155 3.899293 20.162964 -0.890947 4.408706 -4.194449 -1.811014 3.034860 -1.688814 -3.340253 -7.920888 -12.406072 0.632536 70.284040 -53.712294 -48.386625 14.825049 4.764928 -21.159865 -9.761036 0.233802 -3.284683 -3.058970 -9.842612 -0.854144 -67.840562 -42.651246 72.159800 -3.142428 -8.873073 0.002618 -17.713010 -32.608870 5.161850 12.588722 85.302199 11.155923 2.268863 -17.885258 -2.303826 0.005724 0.035873 -0.048953 -11.792638 -48.904792 9.360194 177.383396 78.377751 172.261096 -1.996142 -18.906609 4.081697 -0.018416 0.022513 0.003714
-10.848425 51.205554 22.093516 -175.727755 -30.599463 -8.876170 -0.886049 14.302243 3.978462 -0.622355 8.161230 2.290338 -0.728115 10.204963 2.856170 -0.622334 8.161257 2.290299 3.867316 20.112748 -0.926403 4.371219 -4.278198 -1.827590 3.010993 -1.695399 -3.339993 -8.047354 -12.361468 0.635441 70.329454 -53.793513 -48.397208 14.820813 4.668261 -21.302514 -9.773723 0.243663 -3.271986 -3.034733 -9.782307 -0.820462 -68.018043 -42.719475 72.379016 -3.172076 -8.842103 0.005629 -17.810958 -32.739413 5.158720 12.746644 85.387213 11.323398 2.288820 -17.941431 -2.368565 0.006030 0.034223 -0.045480 -11.776614 -48.978396 9.304772 177.397265 78.401673 172.224713 -2.010793 -18.920362 4.126415 -0.035465 0.027841 0.007766
-10.859318 51.215515 22.077827 -175.688276 -30.515348 -8.828958 -0.887237 14.303073 3.969260 -0.623842 8.163128 2.286073 -0.730093 10.207292 2.850863 -0.623857 8.163126 2.286034 3.823505 20.035923 -0.946522 4.334364 -4.347677 -1.914590 2.989007 -1.698016 -3.338634 -8.149661 -12.319113 0.633160 70.349342 -53.867704 -48.401477 14.804717 4.560921 -21.455460 -9.783785 0.256816 -3.261673 -3.016947 -9.731338 -0.791229 -68.170907 -42.788519 72.580011 -3.190040 -8.826278 -0.001447 -17.939422 -32.857674 5.176964 13.008173 85.470593 11.558213 2.311724 -17.991198 -2.427350 0.003165 0.032460 -0.053050 -11.760958 -49.039351 9.274441 177.446119 78.421366 172.219933 -2.064398 -18.925387 4.187164 -0.006540 0.019454 0.003407
